<?xml version="1.0" encoding="UTF-8"?>
<!-- Generator: visioncortex VTracer 0.6.3 -->
<svg version="1.1" xmlns="http://www.w3.org/2000/svg" width="1280" height="1280">
<path d="M0 0 C422.4 0 844.8 0 1280 0 C1280 422.4 1280 844.8 1280 1280 C857.6 1280 435.2 1280 0 1280 C0 857.6 0 435.2 0 0 Z " fill="#000000" transform="translate(0,0)"/>
<path d="M0 0 C2.46 2.25 4.02 4.53 5.64 7.43 C6.13 8.3 6.62 9.17 7.12 10.07 C7.64 10.99 8.16 11.92 8.69 12.88 C13.61 21.61 13.61 21.61 18.81 30.19 C22.76 36.51 26.47 42.97 30.19 49.44 C40.11 66.7 50.28 83.81 60.54 100.88 C65.71 109.48 70.75 118.15 75.75 126.84 C81.26 136.38 86.9 145.85 92.59 155.28 C97.75 163.86 102.87 172.43 107.73 181.18 C110.65 186.44 113.71 191.6 116.81 196.75 C117.31 197.58 117.81 198.41 118.32 199.26 C121 203.71 123.7 208.15 126.4 212.58 C126.95 213.49 127.5 214.39 128.07 215.33 C129.13 217.07 130.19 218.82 131.26 220.55 C131.97 221.73 131.97 221.73 132.7 222.94 C133.12 223.63 133.54 224.32 133.98 225.03 C135 227 135 227 135.52 229.19 C135.68 229.79 135.84 230.39 136 231 C136.66 231.33 137.32 231.66 138 232 C81.73 232.02 25.45 232.04 -30.82 232.05 C-37.46 232.05 -44.1 232.05 -50.73 232.05 C-51.39 232.06 -52.05 232.06 -52.73 232.06 C-74.82 232.06 -96.91 232.07 -119 232.08 C-140.97 232.09 -162.93 232.09 -184.9 232.09 C-198.46 232.1 -212.03 232.1 -225.59 232.11 C-234.88 232.11 -244.17 232.11 -253.46 232.11 C-258.83 232.11 -264.19 232.11 -269.56 232.12 C-274.47 232.12 -279.37 232.12 -284.28 232.12 C-286.06 232.12 -287.84 232.12 -289.63 232.12 C-292.03 232.13 -294.44 232.13 -296.85 232.12 C-297.55 232.13 -298.26 232.13 -298.98 232.13 C-303.77 232.11 -303.77 232.11 -306 231 C-306.07 203.15 -306.12 175.3 -306.16 147.45 C-306.17 134.52 -306.19 121.59 -306.23 108.66 C-306.26 97.39 -306.28 86.12 -306.28 74.86 C-306.29 68.89 -306.3 62.92 -306.32 56.95 C-306.34 51.34 -306.34 45.72 -306.34 40.11 C-306.34 38.04 -306.35 35.98 -306.36 33.92 C-306.37 31.11 -306.37 28.3 -306.36 25.49 C-306.37 24.66 -306.38 23.84 -306.39 22.99 C-306.34 17.42 -306.34 17.42 -304.6 15.29 C-302.51 13.61 -301.32 13.63 -298.65 13.64 C-297.32 13.63 -297.32 13.63 -295.96 13.63 C-294.51 13.64 -294.51 13.64 -293.02 13.66 C-292 13.66 -290.97 13.66 -289.92 13.66 C-286.52 13.66 -283.13 13.68 -279.74 13.71 C-277.39 13.71 -275.04 13.72 -272.69 13.72 C-266.5 13.73 -260.31 13.76 -254.12 13.79 C-247.81 13.82 -241.49 13.84 -235.18 13.85 C-222.79 13.89 -210.39 13.94 -198 14 C-196.84 16.32 -196.86 17.68 -196.84 20.26 C-196.83 21.16 -196.82 22.05 -196.81 22.98 C-196.81 23.96 -196.8 24.94 -196.79 25.96 C-196.78 26.99 -196.77 28.03 -196.76 29.09 C-196.73 32.52 -196.71 35.95 -196.68 39.38 C-196.66 41.76 -196.64 44.13 -196.62 46.5 C-196.57 52.76 -196.52 59.02 -196.47 65.27 C-196.42 71.66 -196.36 78.04 -196.31 84.42 C-196.2 96.95 -196.1 109.47 -196 122 C-192.92 123.03 -190.85 123.12 -187.63 123.1 C-186.53 123.09 -185.43 123.09 -184.3 123.09 C-182.52 123.08 -182.52 123.08 -180.71 123.06 C-178.89 123.06 -178.89 123.06 -177.03 123.05 C-173.15 123.04 -169.26 123.02 -165.38 123 C-160.26 122.97 -155.14 122.95 -150.02 122.94 C-148.83 122.93 -147.65 122.92 -146.42 122.91 C-144.78 122.91 -144.78 122.91 -143.11 122.9 C-142.15 122.9 -141.18 122.89 -140.19 122.89 C-138 123 -138 123 -137 124 C-136.89 125.34 -136.86 126.68 -136.85 128.02 C-136.84 128.88 -136.83 129.75 -136.82 130.64 C-136.82 132.07 -136.82 132.07 -136.81 133.54 C-136.8 135.04 -136.8 135.04 -136.79 136.57 C-136.77 138.75 -136.75 140.94 -136.74 143.12 C-136.72 146.57 -136.69 150.02 -136.66 153.47 C-136.6 160.79 -136.55 168.11 -136.5 175.44 C-136.44 183.92 -136.38 192.4 -136.31 200.87 C-136.28 204.28 -136.26 207.69 -136.24 211.1 C-136.22 213.17 -136.21 215.25 -136.19 217.33 C-136.19 218.29 -136.18 219.24 -136.18 220.23 C-136.17 221.09 -136.16 221.96 -136.15 222.86 C-136.15 223.61 -136.14 224.37 -136.14 225.15 C-136.11 227.09 -136.11 227.09 -135 229 C-134.52 228.14 -134.05 227.27 -133.56 226.38 C-128.23 216.77 -122.63 207.34 -116.95 197.93 C-112.23 190.09 -107.62 182.19 -103.06 174.25 C-98.77 166.77 -94.44 159.35 -89.88 152.04 C-84.32 143.04 -79.07 133.86 -73.79 124.7 C-70.29 118.63 -66.77 112.57 -63.06 106.62 C-59.75 101.31 -56.65 95.89 -53.56 90.44 C-48.79 82 -43.81 73.7 -38.75 65.44 C-32.13 54.63 -25.75 43.71 -19.53 32.68 C-15.76 26.01 -11.87 19.45 -7.83 12.95 C-5.17 8.66 -2.58 4.33 0 0 Z " fill="#F8F9F4" transform="translate(468,484)"/>
<path d="M0 0 C1.4 -0.01 1.4 -0.01 2.83 -0.02 C4.36 -0.01 4.36 -0.01 5.93 -0 C7 -0.01 8.08 -0.01 9.19 -0.02 C12.77 -0.02 16.35 -0.02 19.93 -0.01 C22.43 -0.01 24.92 -0.01 27.41 -0.02 C32.65 -0.02 37.89 -0.02 43.13 -0.01 C49.81 0.01 56.49 -0 63.17 -0.01 C68.33 -0.02 73.49 -0.02 78.65 -0.01 C81.11 -0.01 83.57 -0.01 86.03 -0.02 C111.47 -0.06 138.78 0.99 158.26 19.81 C172.97 36.25 178.41 51.72 177.63 73.75 C176.95 83.21 172.18 93.52 165.45 100.25 C165.4 102.23 165.4 102.23 166.45 104.25 C167.59 105.15 167.59 105.15 168.76 106.07 C177.98 113.55 184.26 125.9 186.17 137.54 C188.03 155.46 184.75 172.05 173.64 186.44 C162.93 199.1 151.68 206.73 136.45 213.25 C135.6 213.62 134.76 213.98 133.89 214.36 C131.36 215.29 128.97 215.85 126.33 216.32 C125.48 216.47 124.63 216.63 123.75 216.79 C115.06 218.01 106.45 218.4 97.68 218.4 C96.56 218.4 95.44 218.41 94.28 218.41 C90.62 218.42 86.95 218.42 83.29 218.42 C80.73 218.43 78.17 218.43 75.62 218.43 C70.28 218.44 64.94 218.44 59.6 218.44 C53.42 218.44 47.25 218.45 41.07 218.47 C35.12 218.48 29.17 218.48 23.21 218.48 C20.68 218.48 18.15 218.49 15.62 218.5 C12.1 218.51 8.58 218.5 5.06 218.5 C4.01 218.5 2.96 218.51 1.87 218.51 C0.92 218.51 -0.03 218.51 -1.02 218.5 C-1.85 218.5 -2.68 218.5 -3.54 218.5 C-5.55 218.25 -5.55 218.25 -7.55 216.25 C-7.75 213.44 -7.82 210.72 -7.81 207.9 C-7.82 206.59 -7.82 206.59 -7.82 205.25 C-7.83 202.31 -7.83 199.36 -7.82 196.41 C-7.83 194.31 -7.83 192.2 -7.84 190.1 C-7.85 184.37 -7.85 178.64 -7.85 172.9 C-7.85 168.13 -7.86 163.35 -7.86 158.57 C-7.87 147.31 -7.87 136.05 -7.87 124.78 C-7.86 113.14 -7.87 101.5 -7.89 89.87 C-7.91 79.89 -7.92 69.91 -7.91 59.93 C-7.91 53.97 -7.91 48 -7.93 42.04 C-7.94 36.43 -7.94 30.82 -7.93 25.21 C-7.92 23.15 -7.93 21.09 -7.93 19.02 C-7.94 16.22 -7.94 13.41 -7.92 10.61 C-7.93 9.78 -7.94 8.95 -7.95 8.1 C-7.92 5.84 -7.92 5.84 -7.55 2.25 C-4.38 0.14 -3.62 0 0 0 Z " fill="#F8F9F4" transform="translate(934.5497436523438,497.74603271484375)"/>
<path d="M0 0 C1.96 0 1.96 0 3.97 0 C4.7 -0 5.42 -0 6.17 -0.01 C8.63 -0.01 11.08 -0 13.53 0.01 C15.28 0 17.03 0 18.78 0 C23.55 -0 28.32 0 33.09 0.01 C38.07 0.02 43.05 0.02 48.03 0.02 C56.39 0.02 64.76 0.03 73.12 0.04 C82.81 0.06 92.49 0.06 102.17 0.06 C111.47 0.06 120.77 0.07 130.07 0.08 C134.04 0.08 138 0.08 141.97 0.08 C146.63 0.08 151.3 0.09 155.96 0.1 C157.68 0.1 159.39 0.1 161.11 0.1 C163.45 0.1 165.78 0.11 168.11 0.12 C169.42 0.12 170.73 0.12 172.08 0.12 C174.98 0.25 174.98 0.25 175.98 1.25 C176.07 3.52 176.09 5.79 176.09 8.06 C176.09 8.78 176.09 9.49 176.09 10.22 C176.09 12.59 176.08 14.95 176.07 17.32 C176.07 18.95 176.07 20.59 176.07 22.22 C176.07 26.53 176.06 30.85 176.05 35.16 C176.04 39.55 176.03 43.95 176.03 48.35 C176.01 56.98 176 65.62 175.98 74.25 C175.15 74.26 175.15 74.26 174.31 74.28 C168.62 74.39 162.93 74.5 157.23 74.62 C155.11 74.66 152.98 74.71 150.85 74.75 C147.8 74.8 144.75 74.87 141.7 74.93 C140.74 74.95 139.78 74.97 138.8 74.98 C137.48 75.01 137.48 75.01 136.13 75.04 C135.35 75.06 134.57 75.07 133.77 75.09 C131.95 75.06 131.95 75.06 130.98 76.25 C130.94 77.92 130.93 79.58 130.98 81.25 C133.74 82.02 136.23 82.39 139.09 82.44 C139.88 82.46 140.68 82.47 141.5 82.49 C142.35 82.5 143.21 82.52 144.08 82.53 C144.96 82.55 145.84 82.57 146.75 82.59 C150.51 82.66 154.27 82.73 158.03 82.8 C160.78 82.85 163.52 82.91 166.27 82.97 C167.13 82.98 167.98 82.99 168.87 83.01 C174.86 83.14 174.86 83.14 175.98 84.25 C176.07 85.84 176.09 87.45 176.09 89.04 C176.09 90.07 176.09 91.09 176.09 92.14 C176.08 93.25 176.08 94.36 176.07 95.5 C176.07 97.2 176.07 97.2 176.07 98.93 C176.06 102.56 176.05 106.18 176.04 109.81 C176.03 112.26 176.03 114.72 176.03 117.17 C176.02 123.2 176 129.22 175.98 135.25 C161.46 135.58 146.94 135.91 131.98 136.25 C131.32 138.56 130.66 140.87 129.98 143.25 C130.54 143.26 131.1 143.27 131.68 143.28 C137.5 143.39 143.32 143.5 149.15 143.62 C151.32 143.66 153.5 143.71 155.68 143.75 C158.8 143.8 161.92 143.87 165.04 143.93 C166.01 143.95 166.99 143.97 168 143.98 C168.9 144 169.8 144.02 170.73 144.04 C171.53 144.06 172.33 144.07 173.15 144.09 C174.98 144.25 174.98 144.25 175.98 145.25 C176.08 147.48 176.1 149.72 176.11 151.96 C176.11 153.01 176.11 153.01 176.11 154.08 C176.12 156.41 176.11 158.73 176.11 161.06 C176.11 162.67 176.11 164.28 176.11 165.89 C176.11 169.27 176.11 172.65 176.11 176.03 C176.1 180.37 176.1 184.71 176.11 189.06 C176.11 192.38 176.11 195.71 176.11 199.04 C176.11 200.64 176.11 202.24 176.11 203.84 C176.12 206.07 176.11 208.31 176.11 210.54 C176.11 211.82 176.1 213.09 176.1 214.4 C175.98 217.25 175.98 217.25 174.98 218.25 C172.69 218.35 170.4 218.38 168.11 218.38 C167.02 218.38 167.02 218.38 165.91 218.38 C163.46 218.38 161.01 218.38 158.56 218.38 C156.8 218.38 155.05 218.38 153.3 218.38 C148.53 218.39 143.77 218.39 139 218.38 C134.02 218.38 129.04 218.38 124.06 218.38 C115.69 218.39 107.33 218.38 98.96 218.38 C89.28 218.37 79.59 218.38 69.91 218.38 C61.61 218.39 53.31 218.39 45.01 218.38 C40.05 218.38 35.09 218.38 30.12 218.39 C25.46 218.39 20.79 218.39 16.12 218.38 C14.41 218.38 12.69 218.38 10.97 218.38 C8.64 218.38 6.3 218.38 3.97 218.38 C2.66 218.38 1.35 218.38 0 218.37 C-3.02 218.25 -3.02 218.25 -5.02 217.25 C-5.07 189.25 -5.11 161.25 -5.13 133.25 C-5.14 120.26 -5.15 107.26 -5.17 94.26 C-5.19 82.93 -5.21 71.61 -5.21 60.28 C-5.21 54.28 -5.22 48.28 -5.23 42.28 C-5.25 36.64 -5.25 30.99 -5.25 25.35 C-5.25 23.28 -5.25 21.2 -5.26 19.12 C-5.27 16.3 -5.27 13.48 -5.26 10.65 C-5.27 9.82 -5.28 8.99 -5.28 8.13 C-5.24 0.43 -5.24 0.43 0 0 Z " fill="#F8F9F4" transform="translate(734.0231943130493,497.7511110305786)"/>
<path d="M0 0 C2.44 2.06 2.44 2.06 4 5 C4.25 8.81 4.25 8.81 4 12 C6.64 12.99 9.28 13.98 12 15 C9.98 12.98 7.38 11.57 5 10 C5.66 9.34 6.32 8.68 7 8 C7.66 8 8.32 8 9 8 C8.5 6.02 8.5 6.02 8 4 C8.66 3.67 9.32 3.34 10 3 C13.82 4.41 15.65 5.43 17.81 8.94 C20.47 12.66 22.68 13.36 26.81 15.01 C29.97 16.44 31.88 18.29 34 21 C34.81 23.81 34.81 23.81 35 26 C31.78 27.07 29.07 27.28 25.69 27.5 C21.39 27.78 17.23 28.23 13 29 C12.82 29.89 12.64 30.78 12.45 31.7 C12.2 32.87 11.95 34.04 11.69 35.25 C11.44 36.41 11.2 37.57 10.95 38.77 C10.02 41.92 9.04 43.5 7 46 C6.1 48.01 6.1 48.01 5.44 50.06 C4.5 52.81 3.65 54.52 2 57 C2.09 62.09 2.79 65 5.69 69.19 C8.04 72.68 8.04 72.68 7.62 75.75 C5.68 78.44 3.72 80.09 1 82 C-0.05 82.74 -1.1 83.49 -2.19 84.25 C-5 86 -5 86 -7 86 C-7.27 86.97 -7.54 87.94 -7.81 88.94 C-8.2 89.95 -8.6 90.96 -9 92 C-9.99 92.33 -10.98 92.66 -12 93 C-12.29 93.76 -12.58 94.53 -12.88 95.31 C-14.27 98.64 -16.14 99.87 -19 102 C-20.2 104.41 -20.1 105.95 -20.06 108.62 C-20.05 109.44 -20.04 110.26 -20.04 111.1 C-20.02 111.73 -20.01 112.35 -20 113 C-23.12 112.51 -26 112 -29 111 C-29.38 111.47 -29.75 111.94 -30.14 112.43 C-33.11 116.04 -35.68 118.96 -40 121 C-40.66 121 -41.32 121 -42 121 C-42 121.66 -42 122.32 -42 123 C-42.62 123.08 -43.24 123.16 -43.88 123.25 C-46.12 123.79 -46.12 123.79 -47 125.69 C-47.33 126.45 -47.66 127.21 -48 128 C-50 131.25 -50 131.25 -52 134 C-52.66 134 -53.32 134 -54 134 C-54.66 136.97 -55.32 139.94 -56 143 C-57.32 143.33 -58.64 143.66 -60 144 C-63 142 -63 142 -64 139 C-64.45 135.27 -64.58 131.72 -64 128 C-61.02 125.09 -58.45 124.16 -54.54 122.8 C-50.3 120.64 -49.14 118.76 -46.88 114.62 C-40.97 103.97 -40.97 103.97 -35.31 102.12 C-34.17 101.57 -34.17 101.57 -33 101 C-32.27 98.69 -31.6 96.35 -31 94 C-30.01 93.67 -29.02 93.34 -28 93 C-26.87 90.2 -26.87 90.2 -26 87 C-25.63 86.2 -25.26 85.39 -24.88 84.56 C-23.69 81.1 -23.47 78.63 -24 75 C-26.81 72.68 -26.81 72.68 -30 71 C-32 68 -32 68 -31.81 65.31 C-29.32 55.17 -29.32 55.17 -25.31 51.62 C-22.24 48.14 -22.63 45.98 -22.91 41.49 C-23 39 -23 39 -22.12 35.31 C-21.96 31.01 -23.17 29.73 -25.97 26.62 C-29.8 23.56 -34.33 23.02 -39.06 22.19 C-41.01 21.81 -42.96 21.43 -44.91 21.04 C-45.77 20.89 -46.62 20.73 -47.51 20.57 C-50 20 -50 20 -52.64 18.94 C-55.26 17.9 -57.21 17.84 -60 18 C-60.23 18.6 -60.45 19.2 -60.69 19.81 C-62.39 22.64 -64.01 23.65 -67 25 C-69.31 24.69 -69.31 24.69 -71 24 C-68.34 18.69 -66.41 15.91 -61 13 C-57.34 12.57 -57.34 12.57 -53.5 12.69 C-51.6 12.72 -51.6 12.72 -49.66 12.76 C-46 13 -46 13 -43.11 13.51 C-38.97 14.16 -34.93 14.15 -30.75 14.12 C-29.53 14.13 -29.53 14.13 -28.28 14.14 C-24.01 14.25 -24.01 14.25 -20 13 C-17.67 12.96 -15.33 12.96 -13 13 C-13.08 11.95 -13.16 10.9 -13.25 9.81 C-12.96 5.43 -12.05 4.05 -9 1 C-5.87 -0.56 -3.44 -0.36 0 0 Z " fill="#F8F9F4" transform="translate(657,493)"/>
<path d="M0 0 C3.48 1.82 4.96 3.05 6.88 6.5 C7.62 10.77 7.57 14.21 5.5 18.06 C1.37 20.32 -2.53 20.09 -7.12 19.5 C-10.19 18.5 -10.19 18.5 -12.12 16.5 C-13.47 11.68 -13.7 9.72 -11.56 5.19 C-8.04 1.3 -5.37 -0.86 0 0 Z " fill="#F8F9F4" transform="translate(653.125,613.5)"/>
</svg>
